<?xml version="1.0" standalone="no"?>
<!DOCTYPE svg PUBLIC "-//W3C//DTD SVG 20010904//EN"
 "http://www.w3.org/TR/2001/REC-SVG-20010904/DTD/svg10.dtd">
<svg version="1.0" xmlns="http://www.w3.org/2000/svg"
 width="956.000000pt" height="180.000000pt" viewBox="0 0 956.000000 180.000000"
 preserveAspectRatio="xMidYMid meet">

<g transform="translate(0.000000,180.000000) scale(0.100000,-0.100000)"
fill="#000000" stroke="none">
<path d="M320 1704 c-118 -31 -208 -108 -262 -221 -39 -83 -49 -158 -46 -348
l3 -160 273 -3 272 -2 0 -46 c0 -52 -21 -98 -53 -116 -15 -9 -93 -15 -257 -18
l-235 -5 -3 -138 -3 -138 263 3 c262 3 263 3 321 30 75 35 166 123 201 193 38
79 46 135 46 336 l0 179 -275 0 -275 0 0 43 c0 55 28 106 71 129 30 16 60 18
256 18 l223 0 0 140 0 140 -232 -1 c-172 0 -247 -4 -288 -15z"/>
<path d="M920 1116 l0 -606 140 0 140 0 0 465 0 465 83 0 c94 0 133 -17 167
-72 19 -32 20 -52 20 -445 l0 -413 140 0 140 0 0 418 c0 390 1 419 19 448 28
46 75 64 170 64 l81 0 0 -465 0 -465 135 0 135 0 0 606 0 606 -247 -4 c-273
-4 -285 -6 -387 -74 l-49 -32 -40 29 c-21 15 -65 38 -96 51 -52 21 -75 23
-303 26 l-248 4 0 -606z"/>
<path d="M2690 1706 c-120 -32 -217 -112 -272 -223 l-33 -68 -3 -452 -3 -453
136 0 135 0 0 140 0 141 138 -3 137 -3 3 -137 3 -138 135 0 135 0 -3 448 -3
447 -32 67 c-87 185 -289 284 -473 234z m167 -286 c60 -36 68 -59 71 -212 l4
-138 -141 0 -141 0 0 133 c0 99 4 139 15 161 37 71 126 97 192 56z"/>
<path d="M3270 1115 l0 -605 135 0 135 0 0 230 0 230 94 0 c81 0 97 -3 121
-22 54 -42 65 -85 65 -270 l0 -168 136 0 136 0 -4 213 c-4 228 -13 271 -71
357 l-24 34 32 46 c58 81 65 117 65 350 l0 210 -410 0 -410 0 0 -605z m548
265 c-7 -101 -58 -134 -198 -128 l-75 3 -3 93 -3 92 142 0 141 0 -4 -60z"/>
<path d="M4180 1580 l0 -140 135 0 135 0 0 -465 0 -465 140 0 140 0 0 465 0
465 2400 0 2400 0 0 140 0 140 -2675 0 -2675 0 0 -140z"/>
<path d="M5426 1250 c-120 -21 -250 -121 -302 -234 -35 -76 -44 -146 -44 -338
l0 -168 275 0 275 0 0 -56 c0 -51 -3 -60 -34 -89 -19 -18 -49 -35 -66 -39 -18
-3 -1267 -6 -2777 -6 l-2744 0 3 -138 3 -137 2775 0 c2700 0 2777 1 2833 19
116 38 213 131 259 246 19 49 22 79 26 268 l4 212 -277 0 -277 0 4 55 c3 40
11 62 29 81 45 49 71 54 304 54 l216 0 -3 138 -3 137 -215 1 c-118 1 -237 -2
-264 -6z"/>
<path d="M6332 1249 c-111 -19 -229 -101 -285 -199 -54 -94 -57 -129 -55 -586
l3 -419 135 0 135 0 3 193 2 192 80 0 c43 0 103 5 132 11 121 25 243 122 296
236 24 52 27 69 27 168 0 99 -3 116 -27 168 -33 70 -111 155 -175 189 -82 45
-183 62 -271 47z m109 -279 c19 -5 48 -24 65 -41 25 -26 29 -38 29 -84 0 -50
-3 -58 -38 -92 -37 -38 -38 -38 -132 -41 l-95 -4 0 87 c0 106 15 139 73 166
49 22 51 22 98 9z"/>
<path d="M7231 1249 c-123 -24 -237 -113 -294 -229 l-32 -65 -3 -458 -3 -457
411 0 410 0 0 140 0 140 -275 0 -275 0 0 95 0 94 138 3 137 3 0 135 0 135
-137 3 -138 3 0 43 c0 53 32 104 80 128 30 16 65 18 253 18 l217 0 0 140 0
140 -222 -1 c-123 -1 -243 -5 -267 -10z"/>
<path d="M7805 1248 c-3 -7 -4 -281 -3 -608 l3 -595 135 0 135 0 3 468 2 467
68 0 c88 0 132 -13 168 -51 l29 -30 5 -427 5 -427 135 0 135 0 3 405 c1 242
-2 426 -8 460 -32 175 -172 311 -350 339 -96 16 -459 14 -465 -1z"/>
<path d="M8712 653 l3 -608 185 -3 c221 -3 325 8 400 45 72 35 159 123 196
198 l29 60 0 305 0 305 -32 66 c-59 120 -178 208 -310 229 -32 6 -151 10 -266
10 l-207 0 2 -607z m478 309 c64 -31 70 -58 70 -307 0 -190 -2 -225 -18 -254
-30 -59 -61 -74 -162 -79 l-90 -4 0 331 0 331 83 0 c58 0 92 -5 117 -18z"/>
</g>
</svg>
